<?xml version="1.0" encoding="UTF-8"?> <svg xmlns="http://www.w3.org/2000/svg" xmlns:xlink="http://www.w3.org/1999/xlink" version="1.1" width="160px" height="53px" viewBox="0 0 160.0 53.0"><defs><clipPath id="i0"><path d="M1440,0 L1440,2584 L0,2584 L0,0 L1440,0 Z"></path></clipPath><clipPath id="i1"><path d="M9.65138688,0 L19.9790289,10.327642 L10.8808871,19.4257838 C10.143227,20.1634439 9.1597468,20.1634439 8.42188664,19.6716038 L0.553245106,11.8029623 C-0.184415035,11.0653022 -0.184415035,9.83580191 0.553245106,9.09814177 L9.65138688,0 Z"></path></clipPath><clipPath id="i2"><path d="M10.327642,0 L19.4257838,9.09814177 C20.1634439,9.83580191 20.1634439,11.0653022 19.4257838,11.8029623 L10.327642,20.9011041 L0,10.5734621 L10.327642,0 Z"></path></clipPath><clipPath id="i3"><path d="M8.42188664,0.553245106 C9.15954678,-0.184415035 10.389047,-0.184415035 11.1267072,0.553245106 L20.2248489,9.40556684 L9.89720692,19.9790289 L0.553245106,11.1269072 C-0.184415035,10.389047 -0.184415035,9.1597468 0.553245106,8.42188664 Z"></path></clipPath><clipPath id="i4"><path d="M9.16294706,0 C12.4462147,0 14.9420182,0.603049167 16.6537578,1.80514717 C18.3652973,3.00904533 19.2211671,4.75478766 19.2211671,7.04417431 C19.2211671,8.36468197 18.9179424,9.49137383 18.3096928,10.42605 C17.7032433,11.3609263 16.8079704,12.0497824 15.6292743,12.4930186 C16.9603828,12.8428471 17.9830662,13.4977005 18.6955242,14.4559786 C19.4077823,15.4140567 19.7648114,16.5819519 19.7648114,17.9598643 C19.7648114,20.459268 18.9735469,22.3378212 17.3892177,23.5937236 C15.8068887,24.849626 13.4618976,25.4882781 10.3542442,25.51168 L0,25.51168 L0,0 L9.16294706,0 Z M10.4600528,14.6657957 L6.15050145,14.6657957 L6.15050145,20.7802942 L10.18023,20.7802942 C11.2891204,20.7802942 12.14299,20.5274736 12.7388386,20.0178321 C13.3344872,19.5101907 13.6323114,18.7959324 13.6323114,17.8720571 C13.6323114,15.7458838 12.5736251,14.6783967 10.4600528,14.6657957 Z M9.16294706,4.74938722 L6.15050145,4.74938722 L6.15050145,10.6360672 L9.35676286,10.6360672 C10.7004724,10.6234661 11.6567504,10.3794462 12.229197,9.90040718 C12.8014437,9.42136813 13.0886671,8.7145105 13.0886671,7.77963427 C13.0886671,6.70494666 12.7782418,5.93168361 12.1591913,5.458045 C11.5401409,4.98620653 10.5426595,4.74938722 9.16294706,4.74938722 Z"></path></clipPath><clipPath id="i5"><path d="M10.0386185,0 C13.0652652,0 15.430058,0.671054711 17.1363971,2.01476426 C18.8409361,3.35867383 19.6930056,5.25522846 19.6930056,7.70962857 C19.6930056,9.48417325 19.3341763,10.9570933 18.6165178,12.1251886 C17.8970591,13.2930838 16.7739676,14.2387609 15.2434428,14.96362 L20.5704771,25.2478585 L20.5704771,25.51148 L13.98214,25.51148 L9.47877281,16.5047456 L6.15050145,16.5047456 L6.15050145,25.51148 L0,25.51148 L0,0 L10.0386185,0 Z M10.0386185,4.74738706 L6.15050145,4.74738706 L6.15050145,11.7573586 L10.0386185,11.7573586 C11.2083138,11.7573586 12.0857854,11.4505336 12.6760335,10.8368835 C13.2662816,10.2232335 13.5605056,9.36736372 13.5605056,8.26947421 C13.5605056,7.17138468 13.2626813,6.31011446 12.6670327,5.68586357 C12.0713842,5.05961251 11.1959128,4.74738706 10.0386185,4.74738706 Z"></path></clipPath><clipPath id="i6"><path d="M6.13249998,0 L6.13249998,25.51148 L0,25.51148 L0,0 L6.13249998,0 Z"></path></clipPath><clipPath id="i7"><path d="M10.7398756,0 C13.834928,0 16.3235309,0.81466642 18.2036841,2.44379924 C20.0840375,4.07293207 21.1533246,6.3191152 21.4099456,9.18094852 L15.2774456,9.18094852 C15.2308418,7.62722185 14.8396099,6.51113085 14.1039499,5.8346757 C13.3684899,5.15662042 12.2469985,4.81739276 10.7398756,4.81739276 C9.20955086,4.81739276 8.08805942,5.38983943 7.37580135,6.53453276 C6.66354328,7.67922609 6.29031285,9.50737514 6.25450993,12.0193799 L6.25450993,13.8243271 C6.25450993,16.546149 6.59533772,18.4909076 7.27899346,19.6590028 C7.96244918,20.826898 9.13954515,21.4101456 10.8098813,21.4101456 C12.2237966,21.4101456 13.3038847,21.0781185 14.0519457,20.4124642 C14.7984065,19.7450098 15.196639,18.6883237 15.2434428,17.2404056 L21.3579413,17.2404056 C21.2753346,19.0165504 20.7980957,20.5846783 19.9208241,21.9447892 C19.0451528,23.3065002 17.8162526,24.3597861 16.2337235,25.107847 C14.6493944,25.8543079 12.8426471,26.2293385 10.8098813,26.2293385 C7.45840809,26.2293385 4.81739276,25.1366494 2.89043566,22.9530714 C0.963478553,20.7676932 0,17.6836417 0,13.700517 L0,12.4392142 C0,9.93981039 0.434035387,7.75283209 1.30430634,5.87787922 C2.17437728,4.00292636 3.42867954,2.55500831 5.0632128,1.53232493 C6.69754605,0.509641551 8.59050038,0 10.7398756,0 Z"></path></clipPath><clipPath id="i8"><path d="M6.15050145,0 L6.15050145,11.2495172 L8.28727566,8.00745285 L13.7901243,0 L21.3939443,0 L12.7728414,11.28372 L21.3939443,25.51148 L14.1041499,25.51148 L8.67310712,16.0149057 L6.15050145,18.7833314 L6.15050145,25.51148 L0,25.51148 L0,0 L6.15050145,0 Z"></path></clipPath><clipPath id="i9"><path d="M10.5820628,0 C12.4158123,0 14.0609464,0.32822676 15.5142649,0.98148002 C16.9693835,1.63633341 18.0996757,2.56740932 18.9053414,3.77670792 C19.711007,4.98600651 20.1146399,6.365719 20.1146399,7.91944567 L13.98214,7.91944567 C13.98214,6.88076099 13.6627139,6.0750953 13.025862,5.50264863 C12.3906102,4.93040198 11.52954,4.64337858 10.4420513,4.64337858 C9.34416183,4.64337858 8.47749117,4.88559832 7.84063925,5.37003782 C7.20358731,5.85627746 6.88616143,6.47152762 6.88616143,7.21978863 C6.88616143,7.87284187 7.23598995,8.46669029 7.93744714,8.99773359 C8.63710418,9.5289769 9.86980469,10.0780217 11.6335485,10.6448679 C13.3970923,11.2119141 14.8468105,11.8217638 15.9791028,12.4750171 C18.7367276,14.0645467 20.1146399,16.2535252 20.1146399,19.0453528 C20.1146399,21.2773347 19.2731713,23.0300776 17.5902341,24.3021814 C15.9090971,25.5760852 13.6017089,26.2131372 10.6700699,26.2131372 C8.60310141,26.2131372 6.72994869,25.8417069 5.05421207,25.0988463 C3.37847545,24.3577859 2.11717261,23.3423031 1.27030357,22.0505978 C0.423434523,20.7604926 0,19.2731713 0,17.5920343 L6.16650276,17.5920343 C6.16650276,18.9591457 6.52013159,19.9656278 7.22698922,20.6134806 C7.93384685,21.2629336 9.08214047,21.5857599 10.6700699,21.5857599 C11.6855527,21.5857599 12.4894183,21.3669421 13.0796664,20.9291064 C13.6699145,20.4914707 13.9641385,19.8760205 13.9641385,19.0811557 C13.9641385,18.1822824 13.6465126,17.4808252 13.0096607,16.9783843 C12.3728088,16.4759433 11.2549176,15.9557009 9.65458714,15.4192571 C8.05405665,14.8828134 6.74615001,14.362371 5.72886708,13.86013 C2.42399763,12.2363976 0.769662751,10.0044157 0.769662751,7.16598424 C0.769662751,5.75386911 1.18229639,4.50696745 2.00596355,3.42507925 C2.82943068,2.34499119 3.99392563,1.50352258 5.5010485,0.902473579 C7.00817138,0.301424575 8.70170945,0 10.5820628,0 Z"></path></clipPath><clipPath id="i10"><path d="M5.10301605,0 C6.50353023,0 7.76143279,0.317625896 8.8789239,0.952677672 C9.99541493,1.58652935 10.8678861,2.48240239 11.4951372,3.64009678 C12.1235884,4.79659107 12.4400142,6.0934968 12.4478149,7.52961389 L12.4478149,8.25847331 C12.4478149,9.70899158 12.1413899,11.0092976 11.5285399,12.1591913 C10.91569,13.3090851 10.0522196,14.2093585 8.93812873,14.8578114 C7.82503798,15.5072643 6.58273669,15.834891 5.21222495,15.8426917 L0,15.8426917 L0,0 L5.10301605,0 Z M5.10301605,2.94924045 L3.81951141,2.94924045 L3.81951141,12.9046521 L5.14641959,12.9046521 C6.24170889,12.9046521 7.08297748,12.5146203 7.67122544,11.7347567 C8.25847331,10.9558932 8.55249729,9.79699875 8.55249729,8.25847331 L8.55249729,7.57321745 C8.55249729,6.04229263 8.25847331,4.8889986 7.67122544,4.11353538 C7.08297748,3.33707207 6.22730771,2.94924045 5.10301605,2.94924045 Z"></path></clipPath><clipPath id="i11"><path d="M10.9346915,0 L10.9346915,2.94804035 L3.81831131,2.94804035 L3.81831131,6.2885127 L9.82500103,6.2885127 L9.82500103,9.12854425 L3.81831131,9.12854425 L3.81831131,12.9044521 L10.9134898,12.9044521 L10.9134898,15.8414916 L0,15.8414916 L0,0 L10.9346915,0 Z"></path></clipPath><clipPath id="i12"><path d="M6.57153578,0 C7.71022862,0 8.73191191,0.203816617 9.63438549,0.609449689 C10.5380592,1.01608284 11.2399164,1.59432999 11.7401572,2.34539122 C12.240398,3.09625244 12.4912184,3.9531223 12.4912184,4.91800097 L8.68290792,4.91800097 C8.68290792,4.27294837 8.48449174,3.77250757 8.09005958,3.41707859 C7.69462734,3.06164962 7.15978374,2.88343509 6.48452868,2.88343509 C5.80267309,2.88343509 5.26442921,3.03384735 4.86899697,3.33467188 C4.47336471,3.6366965 4.27614864,4.01892766 4.27614864,4.48336553 C4.27614864,4.8889986 4.49356636,5.25782867 4.92920188,5.58765556 C5.3636373,5.91748245 6.12909971,6.25831024 7.22438901,6.61033894 C8.3196783,6.96256766 9.2199517,7.34139855 9.92300902,7.7468316 C11.6355486,8.73411209 12.4912184,10.0934229 12.4912184,11.8271643 C12.4912184,13.2130773 11.9685758,14.301766 10.9234906,15.0916304 C9.87940547,15.8826949 8.44668866,16.2783272 6.62614023,16.2783272 C5.34243557,16.2783272 4.17934074,16.0477084 3.1386559,15.5874708 C2.09797105,15.1262332 1.31470719,14.4955818 0.788864316,13.6933164 C0.262821428,12.8922511 0,11.9685758 0,10.9244907 L3.82951222,10.9244907 C3.82951222,11.7735599 4.04893011,12.3986109 4.4879659,12.8020438 C4.9270017,13.2042765 5.64005983,13.4046929 6.62614023,13.4046929 C7.25659163,13.4046929 7.75583233,13.2688818 8.12246223,12.9970597 C8.4888921,12.7250375 8.67170701,12.3430063 8.67170701,11.8493661 C8.67170701,11.2911206 8.47449093,10.855485 8.07905869,10.5434596 C7.68342643,10.2316342 6.98936984,9.90840783 5.99548881,9.57538068 C5.00160778,9.24215351 4.18934156,8.91912718 3.55749004,8.60710174 C1.50532273,7.59881953 0.478038975,6.21270652 0.478038975,4.44996281 C0.478038975,3.57309131 0.734259864,2.79882819 1.24570156,2.12697341 C1.75694324,1.45611872 2.48020221,0.933676123 3.41607851,0.560445693 C4.35195482,0.187215264 5.40384058,0 6.57153578,0 Z"></path></clipPath><clipPath id="i13"><path d="M3.80831049,0 L3.80831049,15.8426917 L0,15.8426917 L0,0 L3.80831049,0 Z"></path></clipPath><clipPath id="i14"><path d="M6.75655086,0 C8.72971173,0 10.2628367,0.451236789 11.3535257,1.35491047 C12.4456147,2.25738404 13.0816666,3.60549396 13.2632814,5.39704002 L9.5853815,5.39704002 C9.45497087,4.51136781 9.17194779,3.8807164 8.73751237,3.50408569 C8.30187685,3.1264549 7.68562661,2.93803954 6.88796158,2.93803954 C5.92968345,2.93803954 5.18982313,3.34367261 4.66738053,4.15593883 C4.14593802,4.96920514 3.8807164,6.12909971 3.87411586,7.63782271 L3.87411586,8.59590083 C3.87411586,10.1770297 4.14373784,11.3647266 4.68398189,12.1591913 C5.22442595,12.9536561 6.07449525,13.3502885 7.23558992,13.3502885 C8.22947095,13.3502885 8.96933127,13.1296705 9.45497087,12.6872344 L9.45497087,10.2282339 L6.7999544,10.2282339 L6.7999544,7.60542007 L13.2744823,7.60542007 L13.2744823,14.1123506 C12.6872344,14.7652038 11.8271643,15.2912467 10.6962721,15.6900792 C9.56417977,16.0889117 8.32407866,16.288328 6.97476865,16.288328 C4.90019951,16.288328 3.24226434,15.6532762 2.00216324,14.3841727 C0.762062131,13.1150693 0.0980079906,11.3491253 0.0112009132,9.08514071 L0,7.71462897 C0,6.15470179 0.275222439,4.79319079 0.826667398,3.62889586 C1.37831237,2.46460094 2.16717669,1.5687279 3.19326035,0.941476759 C4.219344,0.314225619 5.40724085,0 6.75655086,0 Z"></path></clipPath><clipPath id="i15"><path d="M3.81951141,0 L9.42276824,9.85840376 L9.42276824,0 L13.2310787,0 L13.2310787,15.8426917 L9.43396915,15.8426917 L3.81951141,5.9842879 L3.81951141,15.8426917 L0,15.8426917 L0,0 L3.81951141,0 Z"></path></clipPath><clipPath id="i16"><path d="M6.57153578,0 C7.71022862,0 8.73191191,0.203816617 9.63438549,0.609449689 C10.5380592,1.01608284 11.2399164,1.59432999 11.7401572,2.34539122 C12.240398,3.09625244 12.4912184,3.9531223 12.4912184,4.91800097 L8.68290792,4.91800097 C8.68290792,4.27294837 8.48449174,3.77250757 8.09005958,3.41707859 C7.69462734,3.06164962 7.15978374,2.88343509 6.48452868,2.88343509 C5.80267309,2.88343509 5.26442921,3.03384735 4.86899697,3.33467188 C4.47336471,3.6366965 4.27614864,4.01872765 4.27614864,4.48336553 C4.27614864,4.8889986 4.49356636,5.25782867 4.92920188,5.58765556 C5.3636373,5.91748245 6.12909971,6.25831024 7.22438901,6.61033894 C8.3196783,6.96256766 9.2199517,7.34139855 9.92300902,7.7468316 C11.6355486,8.73411209 12.4912184,10.0934229 12.4912184,11.8271643 C12.4912184,13.2130773 11.9685758,14.301766 10.9234906,15.0916304 C9.87940547,15.8826949 8.44668866,16.2783272 6.62614023,16.2783272 C5.34243557,16.2783272 4.17934074,16.0477084 3.1386559,15.5862708 C2.09797105,15.1262332 1.31470719,14.4955818 0.788864316,13.6933164 C0.262821428,12.8922511 0,11.9685758 0,10.9244907 L3.82951222,10.9244907 C3.82951222,11.7735599 4.04893011,12.3986109 4.4879659,12.8008437 C4.9270017,13.2042765 5.64005983,13.4046929 6.62614023,13.4046929 C7.25659163,13.4046929 7.75583233,13.2688818 8.12246223,12.9970597 C8.4888921,12.7250375 8.67170701,12.3430063 8.67170701,11.8493661 C8.67170701,11.2911206 8.47449093,10.855485 8.07885867,10.5434596 C7.68342643,10.2316342 6.98936984,9.90840783 5.99548881,9.57538068 C5.00160778,9.24215351 4.18934156,8.91912718 3.55749004,8.60710174 C1.50532273,7.59881953 0.478038975,6.21270652 0.478038975,4.44996281 C0.478038975,3.57309131 0.734259864,2.79882819 1.24570156,2.12697341 C1.75694324,1.45611872 2.48020221,0.933676123 3.41607851,0.560445693 C4.35195482,0.187215264 5.40384058,0 6.57153578,0 Z"></path></clipPath><clipPath id="i17"><path d="M10.9346915,0 L10.9346915,2.94804035 L3.81831131,2.94804035 L3.81831131,6.2885127 L9.82500103,6.2885127 L9.82500103,9.12854425 L3.81831131,9.12854425 L3.81831131,12.9044521 L10.9134898,12.9044521 L10.9134898,15.8414916 L0,15.8414916 L0,0 L10.9346915,0 Z"></path></clipPath><clipPath id="i18"><path d="M13.2420796,0 L13.2420796,2.94824037 L8.48669192,2.94824037 L8.48669192,15.8416916 L4.66838061,15.8416916 L4.66838061,2.94824037 L0,2.94824037 L0,0 L13.2420796,0 Z"></path></clipPath></defs><g transform="translate(-85.0 -31.0)"><g clip-path="url(#i0)"><g transform="translate(85.00010000000007 30.999900000000043)"><g transform="translate(0.24580004011456857 19.97892888510348)"><g clip-path="url(#i1)"><polygon points="0,0 19.9790289,0 19.9790289,20.0143952 0,20.0143952 0,0" stroke="none" fill="#FFC045"></polygon></g></g><g transform="translate(9.897186919151265 9.405506832399173)"><g clip-path="url(#i2)"><polygon points="0,0 19.9790289,0 19.9790289,20.9011041 0,20.9011041 0,0" stroke="none" fill="#065370"></polygon></g></g><g transform=""><g clip-path="url(#i3)"><polygon points="0,-5.66213743e-15 20.2248489,-5.66213743e-15 20.2248489,19.9790289 0,19.9790289 0,-5.66213743e-15" stroke="none" fill="#0991AB"></polygon></g></g><g transform="translate(35.962151999709235 7.394562879833591)"><g clip-path="url(#i4)"><polygon points="0,0 19.7648114,0 19.7648114,25.51168 0,25.51168 0,0" stroke="none" fill="#FFFFFF"></polygon></g></g><g transform="translate(59.1081991004414 7.395562961370395)"><g clip-path="url(#i5)"><polygon points="0,0 20.5704771,0 20.5704771,25.51148 0,25.51148 0,0" stroke="none" fill="#FFFFFF"></polygon></g></g><g transform="translate(82.93774192668376 7.395422949955227)"><g clip-path="url(#i6)"><polygon points="0,0 6.13249998,0 6.13249998,25.51148 0,25.51148 0,0" stroke="none" fill="#FFFFFF"></polygon></g></g><g transform="translate(92.62685188128852 7.0276929688740815)"><g clip-path="url(#i7)"><polygon points="0,0 21.4099456,0 21.4099456,26.2293385 0,26.2293385 0,0" stroke="none" fill="#FFFFFF"></polygon></g></g><g transform="translate(116.8933703342202 7.394662887987273)"><g clip-path="url(#i8)"><polygon points="0,0 21.3939443,0 21.3939443,25.51148 0,25.51148 0,0" stroke="none" fill="#FFFFFF"></polygon></g></g><g transform="translate(139.0408560220888 7.0442943223849745)"><g clip-path="url(#i9)"><polygon points="0,0 20.1146399,0 20.1146399,26.2131372 0,26.2131372 0,0" stroke="none" fill="#FFFFFF"></polygon></g></g><g transform="translate(35.96215199970923 35.9445305630308)"><g clip-path="url(#i10)"><polygon points="0,0 12.4478149,0 12.4478149,15.8426917 0,15.8426917 0,0" stroke="none" fill="#FFFFFF"></polygon></g></g><g transform="translate(50.36872656991991 35.94523062010657)"><g clip-path="url(#i11)"><polygon points="0,0 10.9346915,0 10.9346915,15.8414916 0,15.8414916 0,0" stroke="none" fill="#FFFFFF"></polygon></g></g><g transform="translate(62.3374823843975 35.72697282551545)"><g clip-path="url(#i12)"><polygon points="0,0 12.4912184,0 12.4912184,16.2783272 0,16.2783272 0,0" stroke="none" fill="#FFFFFF"></polygon></g></g><g transform="translate(77.04806174016448 35.94495059727629)"><g clip-path="url(#i13)"><polygon points="0,0 3.80831049,0 3.80831049,15.8426917 0,15.8426917 0,0" stroke="none" fill="#FFFFFF"></polygon></g></g><g transform="translate(83.20658384540617 35.71635195959466)"><g clip-path="url(#i14)"><polygon points="0,0 13.2744823,0 13.2744823,16.288328 0,16.288328 0,0" stroke="none" fill="#FFFFFF"></polygon></g></g><g transform="translate(98.70070708362485 35.9445305630308)"><g clip-path="url(#i15)"><polygon points="0,0 13.2310787,0 13.2310787,15.8426917 0,15.8426917 0,0" stroke="none" fill="#FFFFFF"></polygon></g></g><g transform="translate(119.7885863816237 35.72141237217084)"><g clip-path="url(#i16)"><polygon points="0,0 12.4912184,0 12.4912184,16.2783272 0,16.2783272 0,0" stroke="none" fill="#FFFFFF"></polygon></g></g><g transform="translate(134.2383244709628 35.93965016513124)"><g clip-path="url(#i17)"><polygon points="0,0 10.9346915,0 10.9346915,15.8414916 0,15.8414916 0,0" stroke="none" fill="#FFFFFF"></polygon></g></g><g transform="translate(146.1196531574932 35.93963016350049)"><g clip-path="url(#i18)"><polygon points="0,0 13.2420796,0 13.2420796,15.8416916 0,15.8416916 0,0" stroke="none" fill="#FFFFFF"></polygon></g></g></g></g></g></svg> 