<?xml version="1.0" encoding="UTF-8"?> <svg xmlns="http://www.w3.org/2000/svg" id="Layer_1" data-name="Layer 1" width="100%" viewBox="0 0 1242 750"><defs><style> .cls-mdda-1 { fill: none; stroke: #232323; stroke-miterlimit: 4.9276; stroke-width: 34.4929px; } .cls-mdda-2 { fill: #de8181; } .cls-mdda-3 { fill: #e3ad4f; } .cls-mdda-4 { fill: #4b85cc; } .cls-mdda-5 { fill: #f15f22; } .cls-mdda-6 { fill: #0baa4b; } .cls-mdda-7 { fill: #ff2b00; } </style></defs><line class="cls-mdda-1" x1="586.4473" y1="410.177" x2="586.4473" y2="588.5912"></line><line class="cls-mdda-1" x1="473.386" y1="248.7257" x2="586.4473" y2="410.177"></line><line class="cls-mdda-1" x1="699.5039" y1="248.7223" x2="586.4473" y2="410.177"></line><path class="cls-mdda-2" d="M585.48,399.8986c-.2661-.1922-.53-.3865-.8-.5755a64.0582,64.0582,0,0,0-89.2158,15.7312L400.102,551.2452a64.0583,64.0583,0,0,0,15.7312,89.2158c.27.189.5427.3708.8145.5551A64.0552,64.0552,0,0,0,505.0491,624.73L600.411,488.539A64.0552,64.0552,0,0,0,585.48,399.8986Z" transform="translate(280.871 -387.7328)"></path><path class="cls-mdda-3" d="M211.8992,552.4694,116.5373,416.2785a64.0552,64.0552,0,0,0-88.4014-16.2863c-.2718.1842-.5445.3661-.8144.5551A64.0583,64.0583,0,0,0,11.59,489.7631h0l95.362,136.1909a64.0582,64.0582,0,0,0,89.2158,15.7312h0c.27-.189.534-.3831.8-.5755A64.0552,64.0552,0,0,0,211.8992,552.4694Z" transform="translate(280.871 -387.7328)"></path><g id="drugrotisserie"><path class="cls-mdda-4" d="M375.1952,1142a98.5513,98.5513,0,1,0-139.3726,0l69.6863-69.6863Z" transform="translate(280.871 -387.7328)"></path><circle cx="586" cy="1162" r="1"></circle><polygon class="cls-mdda-5" points="1143.194 1076.672 1044.643 1076.672 995.368 1162.02 1044.643 1247.368 1143.194 1247.368 1192.47 1162.02 1143.194 1076.672"></polygon><rect class="cls-mdda-6" x="487.8287" y="1591.6027" width="197.1025" height="147.8269" rx="24.6378"></rect><path class="cls-mdda-7" d="M-280.1713,1573.7066c1.5416,45.5476,43.1234,119.0807,81.0914,124.5164,20.6582,2.9576,59.2-21.8866,59.5081-41.1112.4432-27.6391-30.3377-43.4787-30.1791-75.7461.183-37.2228,34.697-21.9176,36.654-62.08,1.1713-24.0333-17.2666-58.8568-45.1675-65.5672-32.9-7.9125-58.7979,14.4227-76.6236,35.1037C-285.3328,1524.1433-281.0351,1548.1858-280.1713,1573.7066Z" transform="translate(280.871 -387.7328)"></path><animateTransform attributeName="transform" type="rotate" values="0 586 1162;90 586 1162;90 586 1162; 180 586 1162; 180 586 1162;270 586 1162; 270 586 1162; 360 586 1162; 360 586 1162" begin="0s" dur="6s" keyTimes="0; 0.05; 0.25; 0.30; 0.5; 0.55; 0.75; 0.8; 1" repeatCount="indefinite" fill="currentColor"></animateTransform></g></svg> 