<?xml version="1.0" encoding="UTF-8"?> <svg xmlns="http://www.w3.org/2000/svg" id="Layer_1" data-name="Layer 1" viewBox="0 0 314.67 44.25"><defs><style>.cls-1{fill:#003e52;}</style></defs><path class="cls-1" d="M168.18,271.52l-6.14,0c-.39-.41-3.85-14.35-16.44-19.61l.07-2.36a26.36,26.36,0,0,0,4.67-1.63c1.34-.71,6.49-2.46,6.3-7.31a7,7,0,0,0-4.83-6.81,13.66,13.66,0,0,0-3.88-.85c-1.36-.09-2.61-.14-3.76-.14-.76,0-1.35,0-1.75,0h-.89q-.06,6-.08,10.67c0,3.07,0,5.25,0,6.52q0,4.37,0,11.85c0,5,.06,8.12.08,9.39h-5.25q0-1.91.1-7.4t.06-13.66v-5.88c0-2.87-.05-8.08-.16-15.66l3.18-.06q2.87-.06,5.28-.06a44.52,44.52,0,0,1,5.36.31,19.11,19.11,0,0,1,5.09,1.37,11.44,11.44,0,0,1,5,3.93,9.17,9.17,0,0,1,1.84,6.08c-.42,5.93-5.93,9.3-9.73,10.78v.16C164.83,258.39,167.93,271.25,168.18,271.52Z" transform="translate(-93.03 -227.43)"></path><path class="cls-1" d="M407.7,271.52l-6.15,0c-.38-.41-3.84-14.35-16.44-19.61l.08-2.36a26.36,26.36,0,0,0,4.67-1.63c1.33-.71,6.49-2.46,6.3-7.31a7.48,7.48,0,0,0-1.29-4.22,7.38,7.38,0,0,0-3.55-2.59,13.58,13.58,0,0,0-3.88-.85c-1.36-.09-2.61-.14-3.75-.14-.77,0-1.35,0-1.75,0h-.89c-.05,4-.07,7.59-.08,10.67s0,5.25,0,6.52q0,4.37.05,11.85t.08,9.39h-5.25q0-1.91.09-7.4t.07-13.66v-5.88c0-2.87-.05-8.08-.16-15.66l3.18-.06c1.9,0,3.66-.06,5.27-.06a44.8,44.8,0,0,1,5.37.31,19,19,0,0,1,5.08,1.37,11.44,11.44,0,0,1,5,3.93,9.17,9.17,0,0,1,1.84,6.08c-.42,5.93-5.93,9.3-9.72,10.78v.16C404.34,258.39,407.44,271.25,407.7,271.52Z" transform="translate(-93.03 -227.43)"></path><path class="cls-1" d="M120.1,270.76l-4.23,0q-3.95,0-9.77,0-4,0-7.4,0c-2.23,0-4.13,0-5.67,0q.06-1.85.11-8t0-12.69q0-3.6,0-9.51T93,228.32l5.64,0q3.39,0,7,0c4.06,0,7.35,0,9.9,0l4.13,0v4.42l-4-.05q-3.68,0-9.14,0h-4.68l-3.63,0c0,2.39,0,4.79-.06,7.17s-.06,4.64-.06,6.76l3.38,0H105q5.6,0,10,0l4.69,0v4.39l-5.24-.05c-3.33,0-6.38,0-9.13,0l-3.65,0H98.12q0,6,0,9.55c0,2.35,0,4.32.06,5.92l4.55,0,5.76,0c3.16,0,5.81,0,8,0l3.61,0Z" transform="translate(-93.03 -227.43)"></path><path class="cls-1" d="M219.07,269.12l-4.95,2.56q-.13-.35-2-4.74t-5-11.29H188.21q-3.36,7.41-5.17,11.48c-1.22,2.72-1.89,4.23-2,4.55l-4.26-2.31q.83-1.65,6.82-14.58T196,227.62h4.13q6.38,14.25,12.51,27.6T219.07,269.12Zm-13.82-17.55c-1.12-2.58-2.31-5.29-3.56-8.11s-2.56-5.78-3.93-8.85l-.13,0q-1.6,3.5-3.86,8.6T190,251.57l0,0h15.24Z" transform="translate(-93.03 -227.43)"></path><path class="cls-1" d="M267.25,249.76a17.58,17.58,0,0,1-2.75,9.83,21.22,21.22,0,0,1-7.13,6.81,31.55,31.55,0,0,1-8.51,3.43A43,43,0,0,1,238.33,271c-1.48,0-2.94,0-4.36-.06l-2.35-.06q0-.17.08-7.34t.08-13.6c0-2.27,0-5.18,0-8.75s-.06-7.89-.15-13l2.91,0,2.78,0A51.87,51.87,0,0,1,249,229.34a28.82,28.82,0,0,1,9.11,3.72,18.57,18.57,0,0,1,9.15,16.7Zm-5.41,0a15.8,15.8,0,0,0-1.78-7.51,15.35,15.35,0,0,0-5.62-5.79,24,24,0,0,0-8-3.15,40.22,40.22,0,0,0-7.92-.89H236.9q-.06,5-.08,8.34c0,2.2,0,4,0,5.28q0,1.4,0,6.54t.05,14.23h1.62a36.22,36.22,0,0,0,8.29-1,24.33,24.33,0,0,0,7-2.69,17.9,17.9,0,0,0,5.82-5.48A13.93,13.93,0,0,0,261.84,249.73Z" transform="translate(-93.03 -227.43)"></path><path class="cls-1" d="M287.14,270.82h-5.25q0-1.9.09-6.81t.07-14.06q0-3.63,0-9.51c0-3.92-.07-8-.13-12.21h5.25c-.05,3-.08,6.55-.11,10.57s0,7.3,0,9.85c0,6.45,0,11.43.06,15S287.12,269.55,287.14,270.82Z" transform="translate(-93.03 -227.43)"></path><path class="cls-1" d="M360.1,270.82h-5.24q0-1.9.09-6.81T355,250q0-3.63,0-9.51c0-3.92-.06-8-.12-12.21h5.24c0,3-.07,6.55-.11,10.57s-.05,7.3-.05,9.85c0,6.45,0,11.43.07,15S360.08,269.55,360.1,270.82Z" transform="translate(-93.03 -227.43)"></path><path class="cls-1" d="M342,229.7q-.16.39-6.73,14.52t-12.55,27.24h-4.23q-6.58-14.71-12.6-27.79T299.62,230l5-2.47q.23.64,5.74,13.25T321,264.49H321q5.22-11.42,10.82-24.05t5.8-13Z" transform="translate(-93.03 -227.43)"></path></svg> 