<?xml version="1.0" encoding="UTF-8"?> <svg xmlns="http://www.w3.org/2000/svg" id="Layer_1" data-name="Layer 1" width="418.9237" height="100" viewBox="0 0 418.9237 100"><defs><style> .cls-elc-1 { fill: #003e52; } .cls-elc-2 { fill: #74bc43; } .cls-elc-3 { fill: #013e52; } </style></defs><g><g><path class="cls-elc-1" d="M194.9418,74.46h-6.14c-.39-.41-3.85-14.35-16.44-19.61l.07-2.36a26.363,26.363,0,0,0,4.67-1.63c1.34-.71,6.49-2.46,6.3-7.31a7,7,0,0,0-4.83-6.81,13.66,13.66,0,0,0-3.88-.85c-1.36-.09-2.61-.14-3.76-.14h-2.64q-.06,6-.08,10.67V64.79c0,5,.06,8.12.08,9.39h-5.25q0-1.91.1-7.4t.06-13.66V47.24c0-2.87-.05-8.08-.16-15.66l3.18-.06q2.87-.06,5.28-.06a44.5119,44.5119,0,0,1,5.36.31,19.1075,19.1075,0,0,1,5.09,1.37,11.44,11.44,0,0,1,5,3.93,9.17,9.17,0,0,1,1.84,6.08c-.42,5.93-5.93,9.3-9.73,10.78v.16C191.5918,61.33,194.6918,74.19,194.9418,74.46Z" transform="translate(-15.5382 -2.5)"></path><path class="cls-elc-1" d="M434.4618,74.46h-6.15c-.38-.41-3.84-14.35-16.44-19.61l.08-2.36a26.363,26.363,0,0,0,4.67-1.63c1.33-.71,6.49-2.46,6.3-7.31a7.4794,7.4794,0,0,0-1.29-4.22,7.38,7.38,0,0,0-3.55-2.59,13.5778,13.5778,0,0,0-3.88-.85c-1.36-.09-2.61-.14-3.75-.14h-2.64c-.05,4-.07,7.59-.08,10.67s0,5.25,0,6.52q0,4.37.05,11.85t.08,9.39h-5.25q0-1.91.09-7.4t.07-13.66V47.24c0-2.87-.05-8.08-.16-15.66l3.18-.06c1.9,0,3.66-.06,5.27-.06a44.8026,44.8026,0,0,1,5.37.31,19.0013,19.0013,0,0,1,5.08,1.37,11.44,11.44,0,0,1,5,3.93,9.17,9.17,0,0,1,1.84,6.08c-.42,5.93-5.93,9.3-9.72,10.78v.16C431.1018,61.33,434.2018,74.19,434.4618,74.46Z" transform="translate(-15.5382 -2.5)"></path><path class="cls-elc-1" d="M146.8618,73.7h-27.07q.06-1.85.11-8t0-12.69V43.5q0-5.91-.14-12.24h26.67v4.42l-4-.05h-17.45c0,2.39,0,4.79-.06,7.17s-.06,4.64-.06,6.76h21.59v4.39l-5.24-.05h-16.33v9.55c0,2.35,0,4.32.06,5.92h21.92Z" transform="translate(-15.5382 -2.5)"></path><path class="cls-elc-1" d="M245.8318,72.06l-4.95,2.56q-.13-.35-2-4.74t-5-11.29h-18.91q-3.36,7.41-5.17,11.48c-1.22,2.72-1.89,4.23-2,4.55l-4.26-2.31q.83-1.65,6.82-14.58t12.4-27.17h4.13q6.38,14.25,12.51,27.6T245.8318,72.06Zm-13.82-17.55c-1.12-2.58-2.31-5.29-3.56-8.11s-2.56-5.78-3.93-8.85h-.13q-1.6,3.5-3.86,8.6t-3.77,8.36h15.25Z" transform="translate(-15.5382 -2.5)"></path><path class="cls-elc-1" d="M294.0118,52.7a17.58,17.58,0,0,1-2.75,9.83,21.22,21.22,0,0,1-7.13,6.81,31.5482,31.5482,0,0,1-8.51,3.43,42.9968,42.9968,0,0,1-10.53,1.17c-1.48,0-2.94,0-4.36-.06l-2.35-.06q0-.17.08-7.34t.08-13.6V44.13c0-3.57-.06-7.89-.15-13h5.69a51.8684,51.8684,0,0,1,11.68,1.15,28.82,28.82,0,0,1,9.11,3.72,18.57,18.57,0,0,1,9.15,16.7Zm-5.41,0a15.8,15.8,0,0,0-1.78-7.51,15.35,15.35,0,0,0-5.62-5.79,24,24,0,0,0-8-3.15,40.2212,40.2212,0,0,0-7.92-.89h-1.62q-.06,5-.08,8.34V55.52q0,5.14.05,14.23h1.62a36.2185,36.2185,0,0,0,8.29-1,24.3307,24.3307,0,0,0,7-2.69,17.9006,17.9006,0,0,0,5.82-5.48,13.93,13.93,0,0,0,2.24-7.91Z" transform="translate(-15.5382 -2.5)"></path><path class="cls-elc-1" d="M313.9018,73.76h-5.25q0-1.9.09-6.81t.07-14.06V43.38c0-3.92-.07-8-.13-12.21h5.25c-.05,3-.08,6.55-.11,10.57s0,7.3,0,9.85c0,6.45,0,11.43.06,15S313.8818,72.49,313.9018,73.76Z" transform="translate(-15.5382 -2.5)"></path><path class="cls-elc-1" d="M386.8618,73.76h-5.24q0-1.9.09-6.81t.05-14.01V43.43c0-3.92-.06-8-.12-12.21h5.24c0,3-.07,6.55-.11,10.57s-.05,7.3-.05,9.85c0,6.45,0,11.43.07,15S386.8418,72.49,386.8618,73.76Z" transform="translate(-15.5382 -2.5)"></path><path class="cls-elc-1" d="M368.7618,32.64q-.16.39-6.73,14.52t-12.55,27.24h-4.23q-6.58-14.71-12.6-27.79t-6.27-13.67l5-2.47q.23.64,5.74,13.25t10.64,23.71h0q5.22-11.42,10.82-24.05t5.8-13Z" transform="translate(-15.5382 -2.5)"></path></g><g><path class="cls-elc-2" d="M94.7618,101.2891a1.5045,1.5045,0,0,1-1.41.6322c-4.4693.034-8.9378.1475-13.4071.2008-2.7627.0329-2.8027.0073-2.8924-2.6885A100.3942,100.3942,0,0,0,74.64,80.5513,78.799,78.799,0,0,0,65.268,56.4406a19.66,19.66,0,0,1-3.2132-4.9257A39.2242,39.2242,0,0,0,49.593,39.0391c-2.1852-1.3176-4.502-.8964-6.7587-.35A30.2926,30.2926,0,0,0,30.77,44.6814c-.3839.3112-.783,1.2166-1.3946.5166a1.5232,1.5232,0,0,1-.0553-2.201c.91-.9206,1.784-1.8888,2.7756-2.7135A34.3321,34.3321,0,0,1,46.8868,32.989a6.8692,6.8692,0,0,1,3.6384.2709c6.204,1.9187,11.4212,5.511,16.3054,9.6626.9847.837,1.9573,1.6882,2.9355,2.5328a9.6158,9.6158,0,0,1,3.9792,4.2223A86.1936,86.1936,0,0,1,90.02,77.5413a90.06,90.06,0,0,1,4.7129,21.2234A12.3286,12.3286,0,0,1,94.7618,101.2891Z" transform="translate(-15.5382 -2.5)"></path><path class="cls-elc-3" d="M62.0548,51.5149a19.3973,19.3973,0,0,1,3.2131,4.9258C51.7687,68.616,42.0854,83.4693,34.7618,99.9808c-.436.9829-.7351,2.09-1.9111,2.5192h-.648c-2.7314-.3817-5.4767-.0714-8.2142-.1616-1.0236-.0338-2.0493-.005-3.074-.0056a22.4678,22.4678,0,0,1-3.9459-.1409c-.9351-.76-.3047-1.4385.1278-2.1034A199.6245,199.6245,0,0,1,38.3711,73.0263,178.68,178.68,0,0,1,62.0548,51.5149Z" transform="translate(-15.5382 -2.5)"></path><path class="cls-elc-3" d="M73.7453,49.6776q-1.9893-2.1112-3.9789-4.2225c4.2809-3.982,8.2427-8.2276,11.03-13.4374a17.9362,17.9362,0,0,0,1.9183-5.2958,10.6342,10.6342,0,0,0-4.2074-10.8545c-3.67-2.9112-7.98-4.3933-12.4583-5.4781-.4714-.1142-.9481-.2064-1.42-.3174-.9421-.2215-.6-.9919-.6728-1.5864-.0965-.7879.4521-.6952.9344-.6886,5.1726.0706,10.3447-.4009,15.518-.0062a22.1012,22.1012,0,0,1,5.5295,1.1141c6.0181,2.07,8.3853,6.7806,6.7068,13.4224-1.4413,5.7034-4.5586,10.546-8.0145,15.19A99.0545,99.0545,0,0,1,73.7453,49.6776Z" transform="translate(-15.5382 -2.5)"></path><path class="cls-elc-2" d="M17.2832,46.37c.1793-7.9234,2.1674-16.0034,7.912-22.8226a17.77,17.77,0,0,1,4.1176-3.6207.9948.9948,0,0,1,1.3351-.0137c.3846.369.19.7745.03,1.1915-3.5844,9.2985-4.2662,18.9785-3.7807,28.8146a117.156,117.156,0,0,0,3.6288,23.4607c.1454.5654.6716,1.2916-.0743,1.7724-.76.49-1.341-.1622-1.8545-.5873A30.2533,30.2533,0,0,1,19.894,61.7131,41.7156,41.7156,0,0,1,17.2832,46.37Z" transform="translate(-15.5382 -2.5)"></path><path class="cls-elc-2" d="M23.8908,6.6158c5.443,0,10.8864-.0433,16.3288.0115q9.1366.092,18.2711.3484c1.3616.038,1.6171-.3874,1.0992-1.5436-.242-.54-.4434-1.0988-.6781-1.6426-.1793-.4156-.332-.8512.11-1.1629.4457-.3145.8167.0246,1.1514.2845a7.3379,7.3379,0,0,1,2.6183,4.3508A9.3606,9.3606,0,0,1,60.3219,16.2c-.2965.3137-.6406.8481-1.2153.48-.5526-.3543-.2729-.8257-.1161-1.294.3589-1.0718.6809-2.1563,1.0067-3.239.25-.8312-.0222-1.1436-.9306-1.1218q-11.72.2817-23.44.4954c-5.0137.0932-10.0284.205-15.042.184-1.9307-.0081-3.361-1.3491-4.7978-2.4724-.6319-.4939.11-.6809.3866-.8935C18.5841,6.4862,19.95,6.1317,23.8908,6.6158Z" transform="translate(-15.5382 -2.5)"></path><path class="cls-elc-3" d="M62.4377,33.4182a5.8659,5.8659,0,1,1,.1465-11.73,5.7848,5.7848,0,0,1,5.8539,5.8392A5.8979,5.8979,0,0,1,62.4377,33.4182Z" transform="translate(-15.5382 -2.5)"></path></g></g></svg> 